<?xml version="1.0" encoding="utf-8"?>
<!-- Svg Vector Icons : http://www.onlinewebfonts.com/icon -->
<!DOCTYPE svg PUBLIC "-//W3C//DTD SVG 1.1//EN" "http://www.w3.org/Graphics/SVG/1.1/DTD/svg11.dtd">
<svg version="1.1" xmlns="http://www.w3.org/2000/svg" xmlns:xlink="http://www.w3.org/1999/xlink" x="0px" y="0px" viewBox="0 0 1000 1000" enable-background="new 0 0 1000 1000" xml:space="preserve">
<metadata> Svg Vector Icons : http://www.onlinewebfonts.com/icon </metadata>
<g><g><g><path d="M642.3,10c1.1,0,2.2,0,3.2,0c89.4,69.6,307.6,245.4,307.6,245.4s-47,396.5-65.4,556.3C676.5,870.9,467.4,932.3,254.6,990c-18.9-63.2-137.7-384.5-137.7-384.5s-51.1-387.3-70-516.9C244.3,61.3,445.9,38.3,642.3,10z M627.6,68.9c-171.3,23.4-344,45.3-517,67c10.7,28.6,23.3,55.3,34.4,83.5c106.4-16.4,218.6-30.9,327.3-47.5c16-2.4,37.4-8.8,47.4-6.5c9.4,2.1,26.7,22.7,36,32.8c37.1,39.9,67.2,73.8,104.7,106.4c71-14.1,144.5-25.6,215.9-39.3C800.3,199.5,710.3,133.5,627.6,68.9z M526.2,315.9c-115,17-235.9,42.3-355.1,60.5c10,32.5,22.5,62.5,34.3,93.3c65.7-10.1,127.1-24.5,191.4-36c18.8,27.1,31.9,59.7,52.3,85.1c67.7-15.3,136.9-28.9,204.5-44.2C616.3,423.3,569.8,366.8,526.2,315.9z M434.6,648.1c-4.9-9.1-17.9-48.6-27.8-45.8c-50.1,14.1-116.4,25.7-173.5,39.3c6.8,30.9,22.4,67,32.8,99.8c66.3-13.4,127.4-31.8,193-45.9C453.4,678.4,444.1,665.9,434.6,648.1z"/></g></g><g></g><g></g><g></g><g></g><g></g><g></g><g></g><g></g><g></g><g></g><g></g><g></g><g></g><g></g><g></g></g>
</svg>