<?xml version="1.0" encoding="utf-8"?>
<!-- Svg Vector Icons : http://www.onlinewebfonts.com/icon -->
<!DOCTYPE svg PUBLIC "-//W3C//DTD SVG 1.1//EN" "http://www.w3.org/Graphics/SVG/1.1/DTD/svg11.dtd">
<svg version="1.1" xmlns="http://www.w3.org/2000/svg" xmlns:xlink="http://www.w3.org/1999/xlink" x="0px" y="0px" viewBox="0 0 1000 1000" enable-background="new 0 0 1000 1000" xml:space="preserve">
<metadata> Svg Vector Icons : http://www.onlinewebfonts.com/icon </metadata>
<g><g id="_x32_069a460dcf28295e231f3111e03d6d7"><path d="M301.1,828l-38.3,162H23.1l44.3-152.8C128.4,852.1,210,848.9,301.1,828z M785.1,580.7h-34.4h-31.1v32.8v32h65.6L785.1,580.7L785.1,580.7z M213.6,645.7H180v-97.3h187.1l62.7-265.6l68.3,265.6h93.3v-95.1h96.7V263.2h0.5L622.2,10H307.1L88.5,764.2c89.3,29.9,235.7,6.7,405.1-86.6H213.6V645.7z M976.9,580.7v64.7h-96.7v93.4h-66.7l65,247.7H610.7l-64.3-250.3c18.4-9.5,36.8-19.5,55-30.2c7.3-4.3,14.3-8.5,21.4-12.8v-47.8H523H245.8v-32h-33.6v-32.8h33.6h113.7h146.9h117.3v-95.1h33.6h63.1V384.1v-88.6h21.3h9.8h33.6v190.1h61.5h33.6v95.1h63.1L976.9,580.7L976.9,580.7z M813.8,548.7H690v125.4h123.8V548.7L813.8,548.7z"/></g></g>
</svg>