<?xml version="1.0" encoding="utf-8"?>
<!-- Svg Vector Icons : http://www.onlinewebfonts.com/icon -->
<!DOCTYPE svg PUBLIC "-//W3C//DTD SVG 1.1//EN" "http://www.w3.org/Graphics/SVG/1.1/DTD/svg11.dtd">
<svg version="1.1" xmlns="http://www.w3.org/2000/svg" xmlns:xlink="http://www.w3.org/1999/xlink" x="0px" y="0px" viewBox="0 0 1000 1000" enable-background="new 0 0 1000 1000" xml:space="preserve">
<metadata> Svg Vector Icons : http://www.onlinewebfonts.com/icon </metadata>
<g><g transform="translate(0.000000,487.000000) scale(0.100000,-0.100000)"><path d="M100-130v-4737.4h4900h4900V-130v4737.4H5000H100V-130z M3671.7,2308.4c566.6-44.1,952.1-185.8,1221.5-452.8c276.3-271.7,401.8-629.3,380.8-1089.1C5241.5,88.3,4886.2-371.5,4222-592.1c-288-95.2-520.2-123.1-935.9-113.8l-353,7v-898.7v-901h-429.6h-429.6l4.6,2364.1l7,2361.8l197.4,30.2c160.2,23.2,548.1,48.8,1033.4,69.7C3355.8,2329.3,3513.7,2320,3671.7,2308.4z M7357.1,987c225.3-46.4,452.8-132.4,452.8-171.8c0-11.6-20.9-92.9-44.1-176.5c-25.5-83.6-60.4-213.7-81.3-285.6l-37.1-132.4L7522,276.4c-308.9,137-699,171.8-887.1,79c-125.4-60.4-195.1-167.2-195.1-301.9c0-202,118.4-306.5,517.9-455.2c497-188.1,778-392.5,912.6-668.8c62.7-130,67.4-157.9,67.4-418c0-269.4-2.3-285.6-76.6-436.6c-141.7-283.3-394.8-478.4-764-578.3c-264.7-72-815.1-72-1107.7,0c-202,51.1-478.4,157.9-478.4,188.1c0,27.9,160.3,587.5,169.5,599.1c7,4.6,51.1-9.3,102.2-34.8c48.8-25.6,176.5-74.3,285.6-109.2c167.2-55.7,239.2-65,464.5-67.4c241.5-2.3,278.7,2.3,380.9,55.7c134.7,69.7,199.7,174.2,199.7,325.1c0,206.7-134.7,327.4-531.8,478.4c-355.3,137-534.1,239.2-701.3,404.1c-220.6,218.3-264.8,322.8-264.8,627c0,225.3,4.7,255.4,74.3,401.7c150.9,315.8,457.5,550.4,824.4,631.7C6727.8,1042.7,7111,1038.1,7357.1,987z"/><path d="M3119,1641.9c-44.1-4.6-104.5-13.9-132.4-18.6l-53.4-11.6V801.2V-6.9l72-16.3c134.7-25.5,564.3-13.9,712.9,20.9c387.8,92.9,613.1,313.5,680.4,675.8c48.8,255.4-16.3,520.2-167.2,692C4027,1597.8,3634.5,1695.3,3119,1641.9z"/></g></g>
</svg>